<svg width="24" height="24" viewBox="0 0 24 24" fill="none" xmlns="http://www.w3.org/2000/svg">
<path d="M9.9175 15.835C8.26363 15.835 6.86392 15.2622 5.71835 14.1166C4.57278 12.9711 4 11.5714 4 9.9175C4 8.26363 4.57278 6.86392 5.71835 5.71835C6.86392 4.57278 8.26363 4 9.9175 4C11.5714 4 12.9711 4.57278 14.1166 5.71835C15.2622 6.86392 15.835 8.26363 15.835 9.9175C15.835 10.5851 15.7288 11.2148 15.5164 11.8065C15.3039 12.3983 15.0156 12.9218 14.6515 13.377L19.7496 18.4751C19.9165 18.642 20 18.8544 20 19.1124C20 19.3703 19.9165 19.5827 19.7496 19.7496C19.5827 19.9165 19.3703 20 19.1124 20C18.8544 20 18.642 19.9165 18.4751 19.7496L13.377 14.6515C12.9218 15.0156 12.3983 15.3039 11.8065 15.5164C11.2148 15.7288 10.5851 15.835 9.9175 15.835ZM9.9175 14.0142C11.0555 14.0142 12.0228 13.6159 12.8193 12.8193C13.6159 12.0228 14.0142 11.0555 14.0142 9.9175C14.0142 8.77952 13.6159 7.81223 12.8193 7.01565C12.0228 6.21906 11.0555 5.82077 9.9175 5.82077C8.77952 5.82077 7.81223 6.21906 7.01565 7.01565C6.21906 7.81223 5.82077 8.77952 5.82077 9.9175C5.82077 11.0555 6.21906 12.0228 7.01565 12.8193C7.81223 13.6159 8.77952 14.0142 9.9175 14.0142Z" fill="#5E6974"/>
</svg>
